<?xml version="1.0" encoding="UTF-8"?>
<svg version="1.1" viewBox="0 0 2048 2048" width="512" height="512" xmlns="http://www.w3.org/2000/svg">
<path transform="translate(966,345)" d="m0 0h114l13 3 11 6 12 11 7 11 4 10 1 5 1 55-1 925-3 12-5 10-9 10-8 7-13 6-8 2h-116l-14-4-11-7-6-5-9-12-4-9-2-9-1-13v-962l2-12 5-12 7-9 9-9 11-6z" fill="#FDFDFD"/>
<path transform="translate(1008,1497)" d="m0 0h30l14 3 13 5 15 8 10 8 8 7 9 11 8 13 6 14 4 16 1 5v24l-3 16-6 16-9 16-11 13-7 7-17 11-16 7-15 4-13 2h-13l-18-3-15-5-15-8-12-9-12-12-10-14-8-17-4-13-2-11v-22l4-20 7-16 7-12 9-11 11-11 10-7 17-9 13-4z" fill="#FEFEFE"/>
</svg>
