<?xml version="1.0" encoding="UTF-8"?>
<svg version="1.1" viewBox="0 0 2048 2048" width="512" height="512" xmlns="http://www.w3.org/2000/svg">
<path transform="translate(1429,489)" d="m0 0h8l15 3 11 6 10 8 71 71 9 13 4 10 2 10v9l-4 16-6 11-11 12-364 364v5h2l6 7 6 5 5 6 7 6 7 8 5 4 6 7 6 5 6 7 6 5 7 8 271 271 6 5 6 7 6 5 7 8 7 7 8 13 4 13v18l-4 13-6 10-9 11-8 7-63 63-9 6-14 5-5 1h-14l-12-3-10-5-10-8-369-369-5 3-369 369-10 7-10 4-15 3-16-2-10-4-10-7-10-9-65-65-10-14-4-10-2-10v-9l4-17 6-10 9-11h2v-2h2v-2h2l2-4h2l2-4 296-296h2l2-4h2l2-4h2l2-4h2v-2h2v-2h2v-2h2v-2h2v-2h2v-2h2v-2h2l2-4 24-24 5-4-2-4-370-370-9-14-4-13v-19l4-13 7-11 11-12 66-66 10-7 12-5 5-1h19l13 4 10 6 9 7v2h2v2h2v2l4 2v2h2v2h2l6 7 6 5 6 7 6 5 6 7 6 5 7 8 267 267 6 5 6 7 6 5 6 7 6 5 5 6 8 7 5 3 2-4h2l2-4 362-362 10-8 11-5z" fill="#c9c9c9"/>
<path transform="translate(1024,1173)" d="m0 0" fill="#fff"/>
</svg>
