<svg xmlns="http://www.w3.org/2000/svg" version="1.1" xmlns:xlink="http://www.w3.org/1999/xlink" xmlns:svgjs="http://svgjs.dev/svgjs" width="1440" height="560" preserveAspectRatio="none" viewBox="0 0 1440 560"><g mask="url(&quot;#SvgjsMask1829&quot;)" fill="none"><rect width="1440" height="560" x="0" y="0" fill="rgba(0, 0, 0, 1)"></rect><path d="M1488 560L0 560 L0 239.15Q33.81 200.97, 72 234.78Q78.91 121.69, 192 128.61Q260.48 77.09, 312 145.57Q414.98 128.55, 432 231.53Q445.04 172.57, 504 185.61Q522.9 132.51, 576 151.42Q642.77 98.19, 696 164.96Q707.14 104.1, 768 115.24Q810.87 86.1, 840 128.97Q889.1 106.06, 912 155.16Q975 146.16, 984 209.17Q1071.41 176.58, 1104 264Q1104.14 192.14, 1176 192.29Q1174.44 118.74, 1248 117.18Q1374.81 123.99, 1368 250.8Q1426.69 189.5, 1488 248.19z" fill="rgba(62, 0, 0, 1)"></path><path d="M1512 560L0 560 L0 264.26Q32.96 225.22, 72 258.17Q169.43 235.6, 192 333.03Q202.64 271.67, 264 282.31Q305.7 204.01, 384 245.71Q477.28 218.99, 504 312.27Q522.92 211.19, 624 230.1Q669.09 203.19, 696 248.27Q813.74 246.01, 816 363.75Q860.35 336.1, 888 380.44Q888.8 309.24, 960 310.04Q979.38 257.43, 1032 276.81Q1043.71 216.52, 1104 228.23Q1145.15 197.38, 1176 238.53Q1251.63 242.17, 1248 317.8Q1291.41 289.21, 1320 332.62Q1370.99 311.61, 1392 362.6Q1419.52 270.12, 1512 297.64z" fill="rgba(98, 0, 0, 1)"></path><path d="M1560 560L0 560 L0 467.17Q26.41 373.58, 120 399.99Q194.17 354.16, 240 428.33Q268.3 384.63, 312 412.92Q339.37 368.29, 384 395.66Q429.72 321.38, 504 367.11Q526.88 318, 576 340.88Q631.76 324.64, 648 380.41Q731.84 392.25, 720 476.08Q719.51 355.59, 840 355.1Q891.63 286.74, 960 338.37Q1021.5 327.88, 1032 389.38Q1105.14 390.52, 1104 463.66Q1089.52 377.19, 1176 362.71Q1230.27 296.98, 1296 351.25Q1365.83 349.07, 1368 418.9Q1383.81 362.71, 1440 378.52Q1511.38 329.9, 1560 401.28z" fill="rgba(170, 0, 0, 1)"></path><path d="M1512 560L0 560 L0 471.1Q71.14 422.25, 120 493.39Q211.05 512.44, 192 603.49Q188.98 528.47, 264 525.44Q309.91 451.36, 384 497.27Q428.59 421.86, 504 466.44Q534.65 425.09, 576 455.74Q646.53 406.27, 696 476.81Q765.46 474.27, 768 543.73Q817.4 473.13, 888 522.54Q973.74 488.27, 1008 574.01Q1076.76 522.77, 1128 591.54Q1134.71 478.25, 1248 484.97Q1297.36 414.33, 1368 463.68Q1422.61 446.28, 1440 500.89Q1492.89 481.78, 1512 534.68z" fill="rgba(255, 54, 54, 1)"></path></g><defs><mask id="SvgjsMask1829"><rect width="1440" height="560" fill="#ffffff"></rect></mask></defs></svg>