<?xml version="1.0" encoding="UTF-8"?>
<svg version="1.1" viewBox="0 0 2048 2048" width="512" height="512" xmlns="http://www.w3.org/2000/svg">
<path transform="translate(1532,573)" d="m0 0 16 1 13 5 9 6 10 9 10 10 2 1v2h2v2l4 2 48 48 9 14 4 10 1 4v21l-4 13-9 14-9 10-299 299h-2l-2 4h-2l-2 4h-2l-2 4h-2l-2 4h-2v2h-2v2h-2v2h-2v2h-2v2h-2v2h-2v2h-2v2l-7 6-5 6-7 6-5 6-8 7-353 353-13 9-11 4-7 2h-17l-16-5-14-10-190-190v-2l-4-2v-2l-4-2v-2l-4-2v-2l-4-2v-2l-4-2v-2h-2v-2h-2v-2h-2v-2h-2v-2h-2l-6-7-6-5-6-7-6-5-6-7-6-5-6-7-6-5-7-8-168-168-7-10-4-8-3-14v-8l3-15 7-13 9-11 66-66 11-8 12-6 12-2h9l14 3 12 6 12 11 48 48 6 5 6 7 6 5 6 7 6 5 5 6 7 6v2l4 2 226 226 6 5 1 2 5-1 614-614 11-7 10-4z" fill="#c9c9c9"/>
</svg>
